<svg version="1.1" id="Layer_1" xmlns="http://www.w3.org/2000/svg" xmlns:xlink="http://www.w3.org/1999/xlink" x="0px" y="0px"
	 width="100%" viewBox="0 0 360 284" enable-background="new 0 0 360 284" xml:space="preserve">
<path fill="#fff" opacity="0.000000" stroke="none" 
	d="
M261.000000,285.000000 
	C174.000015,285.000000 87.500031,285.000000 1.000035,285.000000 
	C1.000023,190.333359 1.000023,95.666733 1.000012,1.000073 
	C120.999947,1.000049 240.999893,1.000049 360.999878,1.000024 
	C360.999939,95.666595 360.999939,190.333191 360.999969,284.999878 
	C327.833344,285.000000 294.666656,285.000000 261.000000,285.000000 
M283.996490,198.986008 
	C283.996490,198.986008 284.062622,198.919617 283.732880,198.197540 
	C279.833649,197.432846 275.934418,196.668137 271.996552,195.019348 
	C271.995667,193.019531 271.641479,190.939957 272.071106,189.037354 
	C272.846985,185.601364 273.798767,182.121674 278.491638,181.971283 
	C285.413727,181.749451 292.339325,180.944382 299.244476,181.122543 
	C304.148346,181.249100 306.315094,178.405228 306.928345,173.726379 
	C307.336365,170.613419 307.054321,167.402969 306.996857,164.237671 
	C306.905518,159.209854 304.850494,157.239578 299.876251,156.974823 
	C295.792999,156.757523 291.720184,156.335327 287.645264,155.975342 
	C285.259216,155.764542 283.814087,154.594025 284.167786,151.325592 
	C284.060974,149.211258 283.954132,147.096939 283.938965,144.442856 
	C283.644806,144.241287 283.350677,144.039719 283.042908,143.912766 
	C283.042908,143.912766 283.108978,143.875458 283.017731,143.160797 
	C282.042877,136.084045 284.484985,133.132095 291.065552,132.965897 
	C298.600616,132.775589 306.143097,132.493896 313.649170,131.859497 
	C315.193634,131.728958 317.098969,130.173630 317.962433,128.745636 
	C320.569275,124.434273 319.054718,111.660034 315.929779,107.458595 
	C315.624451,107.357040 315.319092,107.255486 314.372650,106.994934 
	C313.934631,106.956833 313.496582,106.918739 312.616241,106.144386 
	C308.726959,106.394051 304.837677,106.643715 300.025299,106.997406 
	C292.783875,106.658356 285.532959,106.437683 278.310638,105.859627 
	C277.154480,105.767082 275.347839,104.196953 275.176117,103.100861 
	C274.496216,98.761520 273.916992,94.312004 274.191254,89.959473 
	C274.318573,87.939247 276.072113,85.101433 277.832855,84.327278 
	C280.264191,83.258263 283.449310,83.382339 286.221405,83.725021 
	C291.043243,84.321098 299.384491,82.861221 299.936066,78.994911 
	C300.533691,74.805611 301.083374,70.525139 300.855988,66.327652 
	C300.653717,62.593773 298.595795,59.239643 294.360657,59.087593 
	C286.228363,58.795620 278.058228,59.349998 269.941010,58.892658 
	C256.668060,58.144844 243.313126,61.470596 230.414200,53.249306 
	C213.836624,42.683369 194.722626,41.622166 175.381973,43.922211 
	C162.582245,45.444397 150.659607,49.164013 139.757370,56.015213 
	C135.431686,58.733570 130.999664,59.760628 126.084610,57.949799 
	C126.084610,57.949799 126.159805,57.940804 125.956482,57.429569 
	C125.640076,57.328423 125.323669,57.227272 124.307159,56.978687 
	C122.194283,57.619938 120.081413,58.261185 117.038971,58.991966 
	C106.771172,58.994843 96.503365,58.999043 86.235565,59.000271 
	C73.021225,59.001854 72.542915,59.510643 72.652771,73.690903 
	C67.898895,73.690903 63.145020,73.690903 58.038574,73.690903 
	C58.038574,76.074196 58.025295,77.535675 58.040993,78.996841 
	C58.094059,83.936050 59.046272,84.300179 64.052002,83.578705 
	C68.233749,82.975998 72.565407,83.446045 76.829002,83.359337 
	C78.176369,83.331924 79.518364,83.040894 81.566925,83.078888 
	C84.780365,84.910088 87.608620,86.915977 87.135887,91.332787 
	C86.868385,93.832016 87.053749,96.377243 86.979729,98.900131 
	C86.783478,105.588661 84.209335,108.123077 77.299896,107.961166 
	C72.399498,107.846321 67.512650,107.153297 62.612259,107.038658 
	C59.146461,106.957588 55.610546,107.917908 52.206547,107.530128 
	C43.178562,106.501663 40.574768,108.418854 39.990597,117.394821 
	C39.938065,118.202034 39.820232,119.019226 39.612717,119.799889 
	C37.655441,127.163223 40.200836,131.121597 48.945305,132.981766 
	C59.951988,132.931366 70.958672,132.880951 82.652596,133.133987 
	C87.704636,136.262039 89.084412,149.510895 84.735382,153.675674 
	C84.080246,154.303070 83.112541,154.854462 82.232971,154.957062 
	C75.787605,155.709061 69.337494,156.713669 62.869392,156.879807 
	C58.146610,157.001083 56.370224,159.380753 56.060024,163.378586 
	C55.777630,167.018066 55.939163,170.697845 56.013912,174.357635 
	C56.102032,178.672134 58.386379,180.926498 62.701790,180.987915 
	C66.684280,181.044601 70.669533,180.933777 74.651237,181.013489 
	C83.949799,181.199631 87.754112,182.901031 88.617126,188.409637 
	C89.204247,192.157242 88.606400,196.206924 87.911919,200.007019 
	C87.177055,204.028107 84.087120,205.867798 80.111504,205.982956 
	C76.287033,206.093750 72.455658,206.060226 68.629150,205.990112 
	C54.483883,205.730957 53.778553,204.823471 53.982998,220.588013 
	C54.085583,228.498215 55.505447,229.915359 63.454681,230.013382 
	C94.973473,230.401917 126.491615,230.843689 157.606598,231.893723 
	C157.306335,232.472321 156.946686,233.028168 156.714844,233.632980 
	C154.010315,240.688583 156.909271,247.242142 163.783127,248.741592 
	C168.866333,249.850433 175.207413,247.874680 176.172989,240.063431 
	C176.528244,237.189636 174.690613,234.044769 174.287048,230.242783 
	C188.853088,230.543564 203.419144,230.844360 217.658112,231.778946 
	C214.735458,235.662872 214.483276,239.638260 216.965927,243.892044 
	C219.100998,247.550278 224.466675,249.962173 228.759079,248.941071 
	C232.921539,247.950851 236.087891,244.167358 235.856659,239.625854 
	C235.713043,236.804840 234.648071,234.030731 234.706970,230.826172 
	C239.083313,230.550598 243.458176,230.068314 247.836258,230.037292 
	C262.334503,229.934586 276.833893,230.007935 291.332794,229.984390 
	C295.971039,229.976868 298.953217,227.036133 299.010223,222.469986 
	C299.047638,219.470688 299.352203,216.421890 298.927399,213.483414 
	C298.429474,210.038940 297.614471,205.773743 293.040741,206.174942 
	C288.593872,206.565018 287.123383,204.424149 285.947296,200.439224 
	C285.905762,200.257339 285.864197,200.075455 285.776550,199.293350 
	C285.196808,199.162750 284.617035,199.032166 283.996490,198.986008 
z"/>
<path fill="#DBE8EC" opacity="1.000000" stroke="none" 
	d="
M217.985184,231.145142 
	C203.419144,230.844360 188.853088,230.543564 173.734253,230.515228 
	C167.980789,226.392273 162.959503,227.690063 158.009995,231.265732 
	C126.491615,230.843689 94.973473,230.401917 63.454681,230.013382 
	C55.505447,229.915359 54.085583,228.498215 53.982998,220.588013 
	C53.778553,204.823471 54.483883,205.730957 68.629150,205.990112 
	C72.455658,206.060226 76.287033,206.093750 80.111504,205.982956 
	C84.087120,205.867798 87.177055,204.028107 87.911919,200.007019 
	C88.606400,196.206924 89.204247,192.157242 88.617126,188.409637 
	C87.754112,182.901031 83.949799,181.199631 74.651237,181.013489 
	C70.669533,180.933777 66.684280,181.044601 62.701790,180.987915 
	C58.386379,180.926498 56.102032,178.672134 56.013912,174.357635 
	C55.939163,170.697845 55.777630,167.018066 56.060024,163.378586 
	C56.370224,159.380753 58.146610,157.001083 62.869392,156.879807 
	C69.337494,156.713669 75.787605,155.709061 82.232971,154.957062 
	C83.112541,154.854462 84.080246,154.303070 84.735382,153.675674 
	C89.084412,149.510895 87.704636,136.262039 81.976944,132.741241 
	C74.249763,132.233658 67.197456,132.002075 60.147003,132.048996 
	C56.103626,132.075897 52.063259,132.554947 48.021538,132.830429 
	C40.200836,131.121597 37.655441,127.163223 39.612717,119.799889 
	C39.820232,119.019226 39.938065,118.202034 39.990597,117.394821 
	C40.574768,108.418854 43.178562,106.501663 52.206547,107.530128 
	C55.610546,107.917908 59.146461,106.957588 62.612259,107.038658 
	C67.512650,107.153297 72.399498,107.846321 77.299896,107.961166 
	C84.209335,108.123077 86.783478,105.588661 86.979729,98.900131 
	C87.053749,96.377243 86.868385,93.832016 87.135887,91.332787 
	C87.608620,86.915977 84.780365,84.910088 81.181824,82.648636 
	C80.849541,81.785576 80.902374,81.352768 81.299377,80.904762 
	C82.095528,80.836716 82.547508,80.783875 83.261024,80.750214 
	C83.697159,80.760704 83.871765,80.752007 84.272354,80.812515 
	C84.498337,80.881721 84.950562,80.744156 85.213882,80.757057 
	C85.652512,80.757278 85.827805,80.744591 86.373039,80.811661 
	C87.493988,80.838280 88.245003,80.785126 89.258438,80.750671 
	C89.696037,80.760612 89.871208,80.751877 90.272354,80.812317 
	C90.498337,80.881493 90.950539,80.743950 91.213165,80.756783 
	C91.650604,80.756645 91.825417,80.743683 92.341019,80.840393 
	C93.354309,81.172096 94.026787,81.394142 94.740509,81.973160 
	C99.450500,94.581993 104.119240,106.833855 108.876923,119.355011 
	C109.252640,120.101624 109.539429,120.578941 109.854591,121.298882 
	C109.882973,121.541504 110.087311,121.985283 110.107803,122.348251 
	C111.436661,125.808525 112.745026,128.905838 114.082794,132.372925 
	C121.560120,152.490814 128.917358,172.273788 136.492935,191.972809 
	C140.477356,202.333633 144.843582,212.547653 149.109528,222.996155 
	C149.456360,223.104630 149.731049,223.044907 150.341064,222.912231 
	C151.123749,222.911972 151.571091,222.984695 152.112152,223.197250 
	C152.464432,223.243866 152.722992,223.150635 153.349060,222.951996 
	C154.475021,222.892929 155.233490,222.939285 156.301086,223.266083 
	C157.416824,223.696213 158.223312,223.975952 159.030060,223.976700 
	C184.789703,224.000717 210.549408,224.011719 236.308945,223.955780 
	C237.542679,223.953094 238.775024,223.323349 240.382721,222.906158 
	C242.130569,222.350327 243.503754,221.873978 244.876923,221.397614 
	C244.253021,220.601593 243.629135,219.805573 242.697037,218.728485 
	C241.416565,218.298782 240.444397,218.021133 239.472000,218.020325 
	C211.250397,217.996689 183.028778,217.989563 154.807236,218.037369 
	C153.556549,218.039490 152.306778,218.582932 150.744385,218.703888 
	C147.855118,211.496033 145.278030,204.458557 143.193237,197.364929 
	C160.455414,197.206467 177.225266,197.104156 194.457062,197.092316 
	C202.948212,197.121689 210.977402,197.060577 219.466217,197.097046 
	C228.611389,197.070938 237.296936,196.947281 246.283173,196.744415 
	C246.785614,195.878922 246.987411,195.092590 247.417114,194.079865 
	C247.725586,193.226456 247.806152,192.599472 248.002121,191.622925 
	C248.216431,190.543945 248.315353,189.814514 248.632202,188.807098 
	C249.197525,186.678284 249.544922,184.827454 249.997620,182.651825 
	C250.099197,181.875671 250.095490,181.424332 250.152985,180.834259 
	C250.214172,180.695526 250.130722,180.403961 250.398834,180.150223 
	C250.846573,178.704544 251.026199,177.512619 251.446304,176.100891 
	C251.755478,175.244888 251.824188,174.608673 252.013428,173.648102 
	C252.373535,172.216919 252.613129,171.110077 252.946625,169.679230 
	C253.057877,168.909912 253.075211,168.464600 253.185089,167.744598 
	C253.318222,167.280991 253.358841,167.092072 253.608063,166.624634 
	C254.173477,164.554184 254.530304,162.762222 255.005386,160.608551 
	C255.483109,158.272980 255.842575,156.299118 256.442810,154.105103 
	C256.751282,153.247421 256.819031,152.609940 257.002136,151.622894 
	C257.216400,150.543930 257.315308,149.814499 257.585815,148.948547 
	C257.928711,148.546097 257.961334,148.264114 257.960327,147.613892 
	C258.181671,146.536255 258.297821,145.810837 258.610352,144.877655 
	C258.835236,144.105469 258.863800,143.541016 258.997620,142.651764 
	C259.099213,141.875626 259.095490,141.424301 259.152832,140.834106 
	C259.213928,140.695267 259.129791,140.403778 259.409546,140.123383 
	C260.452728,136.720825 261.216125,133.598694 262.413055,130.369446 
	C264.624084,130.155273 266.401642,130.048218 269.094757,129.886017 
	C268.699738,125.644173 268.330078,121.674744 267.824127,117.348419 
	C265.970703,116.661118 264.253937,116.043892 262.536499,116.042046 
	C214.095886,115.990028 165.655212,115.989830 117.214622,116.041756 
	C115.477882,116.043617 113.741798,116.660248 111.786781,116.933556 
	C111.568153,116.876755 111.143120,116.723625 111.105789,116.357224 
	C106.441559,103.751534 101.943146,91.460114 97.025574,79.338753 
	C96.409164,77.819389 93.690720,76.684418 91.753624,76.268555 
	C87.939629,75.449760 83.990395,75.260925 80.006348,74.445267 
	C77.656670,73.706017 75.397743,73.332993 73.138809,72.959969 
	C72.542915,59.510643 73.021225,59.001854 86.235565,59.000271 
	C96.503365,58.999043 106.771172,58.994843 117.510773,59.367378 
	C118.884827,61.794289 119.370270,64.291321 120.874893,65.698944 
	C121.569672,66.348938 125.220970,65.374245 125.812309,64.239853 
	C126.702637,62.531906 126.084206,60.037479 126.107155,57.877388 
	C130.999664,59.760628 135.431686,58.733570 139.757370,56.015213 
	C150.659607,49.164013 162.582245,45.444397 175.381973,43.922211 
	C194.722626,41.622166 213.836624,42.683369 230.414200,53.249306 
	C243.313126,61.470596 256.668060,58.144844 269.941010,58.892658 
	C278.058228,59.349998 286.228363,58.795620 294.360657,59.087593 
	C298.595795,59.239643 300.653717,62.593773 300.855988,66.327652 
	C301.083374,70.525139 300.533691,74.805611 299.936066,78.994911 
	C299.384491,82.861221 291.043243,84.321098 286.221405,83.725021 
	C283.449310,83.382339 280.264191,83.258263 277.832855,84.327278 
	C276.072113,85.101433 274.318573,87.939247 274.191254,89.959473 
	C273.916992,94.312004 274.496216,98.761520 275.176117,103.100861 
	C275.347839,104.196953 277.154480,105.767082 278.310638,105.859627 
	C285.532959,106.437683 292.783875,106.658356 300.782593,107.237572 
	C305.379456,107.278709 309.219025,107.079674 313.058563,106.880646 
	C313.496582,106.918739 313.934631,106.956833 314.793213,107.249496 
	C315.381897,107.722198 315.592682,107.885155 315.846100,107.992912 
	C319.054718,111.660034 320.569275,124.434273 317.962433,128.745636 
	C317.098969,130.173630 315.193634,131.728958 313.649170,131.859497 
	C306.143097,132.493896 298.600616,132.775589 291.065552,132.965897 
	C284.484985,133.132095 282.042877,136.084045 282.687622,143.557770 
	C280.772949,143.881653 278.787537,143.184677 277.699188,143.883942 
	C276.127350,144.893860 274.504608,146.801178 274.219177,148.541382 
	C273.970978,150.054703 275.118042,152.406464 276.408112,153.435242 
	C279.068909,155.557129 281.612030,153.946564 283.832947,152.033020 
	C283.814087,154.594025 285.259216,155.764542 287.645264,155.975342 
	C291.720184,156.335327 295.792999,156.757523 299.876251,156.974823 
	C304.850494,157.239578 306.905518,159.209854 306.996857,164.237671 
	C307.054321,167.402969 307.336365,170.613419 306.928345,173.726379 
	C306.315094,178.405228 304.148346,181.249100 299.244476,181.122543 
	C292.339325,180.944382 285.413727,181.749451 278.491638,181.971283 
	C273.798767,182.121674 272.846985,185.601364 272.071106,189.037354 
	C271.641479,190.939957 271.995667,193.019531 271.948425,195.794785 
	C270.618469,197.582886 269.336670,198.595551 267.750000,199.855682 
	C267.636810,200.615372 267.839142,201.578705 268.018677,201.574478 
	C274.047180,201.432526 280.073547,201.198364 286.100220,200.977646 
	C287.123383,204.424149 288.593872,206.565018 293.040741,206.174942 
	C297.614471,205.773743 298.429474,210.038940 298.927399,213.483414 
	C299.352203,216.421890 299.047638,219.470688 299.010223,222.469986 
	C298.953217,227.036133 295.971039,229.976868 291.332794,229.984390 
	C276.833893,230.007935 262.334503,229.934586 247.836258,230.037292 
	C243.458176,230.068314 239.083313,230.550598 234.014175,230.887421 
	C228.156067,226.857620 223.046692,227.133011 217.985184,231.145142 
M195.760590,57.145058 
	C191.740036,55.656399 187.734726,54.419655 183.409943,58.095749 
	C182.982574,58.149323 182.555206,58.202900 181.800537,57.774960 
	C181.202560,58.160088 180.604568,58.545212 179.455063,59.361652 
	C168.716858,64.699959 163.289398,73.196381 163.877258,85.349411 
	C164.470535,97.615303 174.789886,110.329613 191.012604,109.489532 
	C206.390259,108.693207 217.649368,94.622070 215.463989,80.184967 
	C213.705185,68.566010 206.742661,61.600101 195.760590,57.145058 
M123.856934,219.845230 
	C123.907097,218.848526 123.934853,217.850113 124.011269,216.855423 
	C124.354027,212.393661 121.462006,209.543915 117.963127,208.822128 
	C115.175110,208.247009 111.287453,209.315643 108.975128,211.079681 
	C106.248985,213.159454 104.668137,217.121902 107.140800,220.446579 
	C108.859482,222.757492 111.565636,225.083633 114.244125,225.756165 
	C118.305466,226.775848 121.507111,224.233780 123.856934,219.845230 
M115.236450,86.221649 
	C115.884514,86.728813 116.504295,87.626808 117.185501,87.676125 
	C120.291237,87.900940 124.071289,88.996841 126.347267,87.649055 
	C128.649002,86.286026 130.404877,82.513069 130.696594,79.623802 
	C131.054398,76.080490 128.629089,73.425682 124.864685,71.984268 
	C120.721016,70.397629 117.633118,71.944435 115.087044,74.614380 
	C111.895485,77.961227 112.508369,81.845154 115.236450,86.221649 
M296.508728,165.240601 
	C296.039581,164.556702 295.719147,163.526840 295.075043,163.249985 
	C292.555084,162.166901 289.579437,160.104568 287.446014,160.723907 
	C285.226227,161.368301 283.049438,164.429810 282.179352,166.901077 
	C280.996368,170.261169 283.156830,172.997589 286.291443,174.491119 
	C291.375946,176.913742 296.137360,172.989532 296.508728,165.240601 
M121.197304,191.126389 
	C117.615021,189.253632 113.959167,189.361618 112.231850,193.134796 
	C111.300301,195.169693 111.767075,198.744476 113.038963,200.681747 
	C115.049240,203.743683 118.455368,203.681717 121.250549,201.116806 
	C124.422653,198.206039 124.993881,194.951080 121.197304,191.126389 
M145.847397,70.502220 
	C141.006500,68.314964 136.717499,69.750046 136.070694,73.892662 
	C135.576935,77.055099 135.998306,80.454170 139.607758,81.057732 
	C141.948669,81.449181 145.156494,80.633781 146.995667,79.146767 
	C150.002182,76.715919 149.055206,73.557465 145.847397,70.502220 
M93.257538,211.318893 
	C94.932396,212.528595 96.480759,214.310730 98.332504,214.719940 
	C99.342850,214.943192 101.759911,212.969406 101.936111,211.753662 
	C102.161301,210.199875 101.235046,207.604218 99.980911,206.875061 
	C96.216438,204.686447 94.437553,207.464828 93.257538,211.318893 
M274.609436,210.013748 
	C272.150665,210.013748 269.691864,210.013748 267.233093,210.013748 
	C271.844849,214.071304 282.435822,213.789688 286.334290,210.045715 
	C282.339111,210.045715 278.947937,210.045715 274.609436,210.013748 
M150.088364,64.501389 
	C151.385406,65.889160 152.478638,67.770226 154.076340,68.430321 
	C154.747925,68.707794 157.078903,66.601036 157.542282,65.207870 
	C157.882034,64.186356 156.147675,61.333801 155.785309,61.410553 
	C153.857941,61.818790 152.071793,62.893745 150.088364,64.501389 
M271.442352,175.984573 
	C271.528870,174.147141 271.994904,172.194626 271.491852,170.535995 
	C271.320587,169.971313 268.188995,169.483185 267.343079,170.147720 
	C266.230469,171.021744 266.039185,173.068527 265.451721,174.611023 
	C267.245300,175.225845 269.038879,175.840652 271.442352,175.984573 
M68.221542,168.035675 
	C67.637138,168.354385 67.052734,168.673096 65.917908,169.291992 
	C72.921829,169.291992 79.142586,169.291992 85.363335,169.291992 
	C85.348526,168.873154 85.333717,168.454315 85.318909,168.035477 
	C79.907486,168.035477 74.496071,168.035477 68.221542,168.035675 
M249.064377,77.060577 
	C249.928543,76.919724 250.792709,76.778870 251.656876,76.638008 
	C251.628052,76.363060 251.599228,76.088112 251.570404,75.813164 
	C245.468887,75.813164 239.367371,75.813164 233.265869,75.813164 
	C233.270142,76.229820 233.274414,76.646477 233.278687,77.063133 
	C238.234589,77.063133 243.190506,77.063133 249.064377,77.060577 
M70.952286,163.999527 
	C75.403641,163.999527 79.854996,163.999527 84.306351,163.999527 
	C84.303612,163.756790 84.300873,163.514053 84.298134,163.271317 
	C78.761490,163.271317 73.224854,163.271317 67.688217,163.271317 
	C67.681671,163.425644 67.675133,163.579971 67.668587,163.734283 
	C68.472549,163.822327 69.276512,163.910355 70.952286,163.999527 
z"/>
<path fill="#3D9BB6" opacity="1.000000" stroke="none" 
	d="
M217.821655,231.462036 
	C223.046692,227.133011 228.156067,226.857620 233.658997,231.092117 
	C234.648071,234.030731 235.713043,236.804840 235.856659,239.625854 
	C236.087891,244.167358 232.921539,247.950851 228.759079,248.941071 
	C224.466675,249.962173 219.100998,247.550278 216.965927,243.892044 
	C214.483276,239.638260 214.735458,235.662872 217.821655,231.462036 
M222.071060,240.363968 
	C222.491608,243.572632 224.868195,243.638641 226.739746,242.477707 
	C228.205322,241.568604 229.252045,239.527328 229.748520,237.779877 
	C229.905792,237.226242 227.069412,235.001404 226.667480,235.251572 
	C224.918213,236.340332 223.561478,238.059677 222.071060,240.363968 
z"/>
<path fill="#3C9AB5" opacity="1.000000" stroke="none" 
	d="
M157.808289,231.579727 
	C162.959503,227.690063 167.980789,226.392273 173.517334,230.905609 
	C174.690613,234.044769 176.528244,237.189636 176.172989,240.063431 
	C175.207413,247.874680 168.866333,249.850433 163.783127,248.741592 
	C156.909271,247.242142 154.010315,240.688583 156.714844,233.632980 
	C156.946686,233.028168 157.306335,232.472321 157.808289,231.579727 
M168.513092,234.887833 
	C164.502350,232.402161 162.505142,235.105865 161.623413,238.214661 
	C161.297638,239.363205 163.154999,241.924896 164.601059,242.611755 
	C167.355133,243.919922 169.424988,242.159744 170.021332,239.402603 
	C170.307388,238.080017 169.541275,236.529877 168.513092,234.887833 
z"/>
<path fill="#B7D4DB" opacity="1.000000" stroke="none" 
	d="
M284.000366,151.679306 
	C281.612030,153.946564 279.068909,155.557129 276.408112,153.435242 
	C275.118042,152.406464 273.970978,150.054703 274.219177,148.541382 
	C274.504608,146.801178 276.127350,144.893860 277.699188,143.883942 
	C278.787537,143.184677 280.772949,143.881653 282.733246,143.915100 
	C283.108978,143.875458 283.042908,143.912766 283.127472,144.103180 
	C283.325378,144.614014 283.537140,144.843674 283.847321,144.982605 
	C283.954132,147.096939 284.060974,149.211258 284.000366,151.679306 
z"/>
<path fill="#2F90B0" opacity="1.000000" stroke="none" 
	d="
M72.895790,73.325439 
	C75.397743,73.332993 77.656670,73.706017 79.964371,74.801399 
	C80.000824,76.001038 79.988503,76.478325 79.671188,76.722389 
	C73.402542,76.070541 67.441193,75.568428 61.470520,75.403038 
	C61.026875,75.390755 60.017796,77.865852 60.185577,79.055717 
	C60.335056,80.115799 61.838577,81.888832 62.596382,81.815536 
	C68.394569,81.254745 74.609230,84.075615 80.009445,79.905678 
	C80.043388,79.879463 80.627831,80.566170 80.955208,80.919968 
	C80.902374,81.352768 80.849541,81.785576 80.829765,82.544449 
	C79.518364,83.040894 78.176369,83.331924 76.829002,83.359337 
	C72.565407,83.446045 68.233749,82.975998 64.052002,83.578705 
	C59.046272,84.300179 58.094059,83.936050 58.040993,78.996841 
	C58.025295,77.535675 58.038574,76.074196 58.038574,73.690903 
	C63.145020,73.690903 67.898895,73.690903 72.895790,73.325439 
z"/>
<path fill="#B7D4DB" opacity="1.000000" stroke="none" 
	d="
M126.095886,57.913593 
	C126.084206,60.037479 126.702637,62.531906 125.812309,64.239853 
	C125.220970,65.374245 121.569672,66.348938 120.874893,65.698944 
	C119.370270,64.291321 118.884827,61.794289 117.975555,59.322609 
	C120.081413,58.261185 122.194283,57.619938 124.791534,57.256546 
	C125.541389,57.733269 125.836021,57.868736 126.159805,57.940804 
	C126.159805,57.940804 126.084610,57.949799 126.095886,57.913593 
z"/>
<path fill="#4D9BB5" opacity="1.000000" stroke="none" 
	d="
M286.023743,200.708435 
	C280.073547,201.198364 274.047180,201.432526 268.018677,201.574478 
	C267.839142,201.578705 267.636810,200.615372 268.115234,199.906921 
	C273.877777,199.446991 278.970184,199.183304 284.062622,198.919617 
	C284.062622,198.919617 283.996490,198.986008 283.993225,199.259979 
	C284.600861,199.653824 285.211761,199.773682 285.822632,199.893555 
	C285.864197,200.075455 285.905762,200.257339 286.023743,200.708435 
z"/>
<path fill="#F2F2F3" opacity="1.000000" stroke="none" 
	d="
M283.897766,198.558594 
	C278.970184,199.183304 273.877777,199.446991 268.420105,199.659454 
	C269.336670,198.595551 270.618469,197.582886 271.967712,196.236816 
	C275.934418,196.668137 279.833649,197.432846 283.897766,198.558594 
z"/>
<path fill="#F0F1F2" opacity="1.000000" stroke="none" 
	d="
M48.483421,132.906097 
	C52.063259,132.554947 56.103626,132.075897 60.147003,132.048996 
	C67.197456,132.002075 74.249763,132.233658 81.633331,132.589539 
	C70.958672,132.880951 59.951988,132.931366 48.483421,132.906097 
z"/>
<path fill="#EEEEEF" opacity="1.000000" stroke="none" 
	d="
M312.837402,106.512512 
	C309.219025,107.079674 305.379456,107.278709 301.244141,107.185562 
	C304.837677,106.643715 308.726959,106.394051 312.837402,106.512512 
z"/>
<path fill="#DBE8EC" opacity="1.000000" stroke="none" 
	d="
M285.799591,199.593445 
	C285.211761,199.773682 284.600861,199.653824 284.013641,199.217773 
	C284.617035,199.032166 285.196808,199.162750 285.799591,199.593445 
z"/>
<path fill="#EEEEEF" opacity="1.000000" stroke="none" 
	d="
M315.887939,107.725754 
	C315.592682,107.885155 315.381897,107.722198 315.113770,107.328995 
	C315.319092,107.255486 315.624451,107.357040 315.887939,107.725754 
z"/>
<path fill="#DBE8EC" opacity="1.000000" stroke="none" 
	d="
M126.058144,57.685188 
	C125.836021,57.868736 125.541389,57.733269 125.141586,57.330261 
	C125.323669,57.227272 125.640076,57.328423 126.058144,57.685188 
z"/>
<path fill="#DBE8EC" opacity="1.000000" stroke="none" 
	d="
M283.893127,144.712738 
	C283.537140,144.843674 283.325378,144.614014 283.134277,144.065887 
	C283.350677,144.039719 283.644806,144.241287 283.893127,144.712738 
z"/>
<path fill="#F9AE2B" opacity="1.000000" stroke="none" 
	d="
M259.129791,140.403778 
	C259.129791,140.403778 259.213928,140.695267 258.934021,140.975143 
	C258.733521,141.828873 258.812927,142.402710 258.892334,142.976562 
	C258.863800,143.541016 258.835236,144.105469 258.315887,144.992477 
	C257.835144,146.198715 257.845154,147.082413 257.855194,147.966095 
	C257.961334,148.264114 257.928711,148.546097 257.290283,149.065079 
	C256.844360,150.202896 256.865540,151.087677 256.886749,151.972443 
	C256.819031,152.609940 256.751282,153.247421 256.236115,153.924927 
	C255.488159,156.300034 255.187637,158.635147 254.887115,160.970261 
	C254.530304,162.762222 254.173477,164.554184 253.402267,166.705933 
	C252.884216,167.160355 252.676025,167.300018 252.694183,167.342163 
	C252.796982,167.580795 252.953995,167.796082 253.092560,168.019302 
	C253.075211,168.464600 253.057877,168.909912 252.630005,169.756195 
	C252.110611,171.428940 252.001755,172.700714 251.892899,173.972473 
	C251.824188,174.608673 251.755478,175.244888 251.204483,175.936737 
	C250.525040,177.462921 250.327881,178.933441 250.130722,180.403961 
	C250.130722,180.403961 250.214172,180.695526 249.934143,180.975281 
	C249.733505,181.828888 249.812912,182.402756 249.892334,182.976608 
	C249.544922,184.827454 249.197525,186.678284 248.336685,188.923645 
	C247.844406,190.202927 247.865570,191.087708 247.886734,191.972488 
	C247.806152,192.599472 247.725586,193.226456 247.240387,193.899384 
	C246.554749,194.633575 246.273712,195.321854 245.524506,196.006744 
	C238.503754,196.001328 231.948593,195.892136 225.399857,196.049362 
	C222.731384,196.113419 220.957794,195.403641 220.347351,192.672348 
	C220.379105,192.659744 220.443726,192.680588 220.821503,192.595123 
	C221.691559,190.287781 222.183853,188.065872 222.565292,185.838226 
	C222.454422,185.832489 222.419464,185.613205 222.744934,185.605591 
	C223.080780,184.739288 223.091156,183.880569 223.089600,182.707123 
	C223.341644,181.849655 223.605591,181.306946 224.087524,180.923370 
	C225.237427,176.396088 226.169342,171.709686 227.114456,166.626862 
	C227.910446,165.836075 228.683548,165.124161 229.477631,165.099899 
	C233.949799,164.963379 238.427017,164.992157 243.317413,164.973969 
	C246.229889,164.485840 248.727448,163.988312 251.225021,163.490768 
	C251.121750,162.894226 251.018478,162.297684 250.915192,161.701141 
	C246.956161,162.076706 242.997116,162.452271 238.599609,162.882446 
	C236.106628,162.848495 234.052094,162.759918 231.915283,162.373093 
	C230.922470,160.723969 230.011963,159.373093 229.079437,157.681503 
	C229.260788,156.711792 229.464157,156.082809 229.829483,155.669434 
	C230.028061,154.930984 230.064697,153.976913 230.089676,152.688477 
	C230.272598,151.726486 230.467178,151.098862 230.874847,150.684631 
	C231.611618,146.565063 232.135284,142.232086 232.641418,137.814499 
	C232.623886,137.729874 232.777695,137.650986 232.844391,137.242020 
	C232.945511,136.558960 232.979935,136.284851 233.127655,135.956360 
	C233.240936,135.901947 233.252029,135.584747 233.252029,135.584747 
	C233.252029,135.584747 232.987518,135.983368 232.710556,135.965164 
	C231.762527,135.971695 231.091476,135.996429 230.420410,136.021149 
	C230.647827,136.364746 230.875229,136.708344 231.018555,137.423706 
	C228.613815,145.831039 226.293182,153.866638 223.851318,161.777679 
	C223.523193,161.844421 223.316315,162.035675 223.090668,162.181885 
	C223.071915,162.136826 223.168640,162.123718 222.799194,162.098267 
	C222.183044,162.081543 221.936325,162.090271 221.509094,162.122772 
	C221.328583,162.146530 220.999496,161.990662 220.687729,161.715240 
	C214.160828,161.293228 207.938461,160.904221 201.733261,161.089722 
	C197.931946,161.203400 195.364502,160.608536 195.871292,154.643570 
	C194.990555,156.708420 194.740021,157.295807 194.326782,157.456329 
	C193.497452,150.021378 192.830795,143.013306 192.376892,135.746338 
	C193.743454,134.194168 194.980667,131.714172 196.038315,131.788513 
	C208.685837,132.677628 221.610413,129.122330 234.266006,133.798370 
	C235.400223,132.610214 236.273376,131.620911 237.574249,130.533722 
	C245.000931,130.489334 251.999908,130.542831 259.083099,130.920990 
	C259.154816,134.298355 259.142303,137.351059 259.129791,140.403778 
z"/>
<path fill="#2E86A5" opacity="1.000000" stroke="none" 
	d="
M182.127838,58.256477 
	C182.555206,58.202900 182.982574,58.149323 184.108551,57.980228 
	C188.534744,57.873859 192.262329,57.883011 195.989914,57.892166 
	C206.742661,61.600101 213.705185,68.566010 215.463989,80.184967 
	C217.649368,94.622070 206.390259,108.693207 191.012604,109.489532 
	C174.789886,110.329613 164.470535,97.615303 163.877258,85.349411 
	C163.289398,73.196381 168.716858,64.699959 180.020050,59.145157 
	C181.099289,58.704597 181.613571,58.480537 182.127838,58.256477 
M196.779663,81.654526 
	C195.592010,82.768463 194.575745,84.209785 193.185852,84.937469 
	C188.206207,87.544548 187.140701,90.846535 190.477051,97.845650 
	C190.769501,93.859337 190.963470,91.215446 191.154037,88.618004 
	C199.031998,84.824402 201.689819,79.938271 199.173141,73.990280 
	C196.995941,68.844650 190.978485,66.180595 185.957657,68.139511 
	C181.367355,69.930466 178.880463,74.592583 180.732956,80.332565 
	C182.343475,73.008301 185.239990,67.937828 192.634186,70.610275 
	C197.216446,72.266411 198.412323,76.226463 196.779663,81.654526 
z"/>
<path fill="#3D9BB5" opacity="1.000000" stroke="none" 
	d="
M258.998871,130.596313 
	C251.999908,130.542831 245.000931,130.489334 237.258743,130.409271 
	C235.398819,130.453201 234.282120,130.523682 232.701477,130.473358 
	C195.122864,130.324844 158.008148,130.279251 120.893623,130.342499 
	C119.567841,130.344757 118.243889,131.422806 116.560814,131.999756 
	C115.486160,132.001068 114.769768,132.002106 114.053383,132.003143 
	C112.745026,128.905838 111.436661,125.808525 110.235947,122.229492 
	C110.171127,121.517265 109.998665,121.286758 109.826210,121.056259 
	C109.539429,120.578941 109.252640,120.101624 109.185097,119.204300 
	C109.983932,118.097412 110.563522,117.410515 111.143120,116.723625 
	C111.143120,116.723625 111.568153,116.876755 112.088226,117.219437 
	C113.268906,117.628426 113.929504,117.752907 114.590096,117.752785 
	C165.713547,117.743233 216.836990,117.723892 267.960449,117.705307 
	C268.330078,121.674744 268.699738,125.644173 269.094757,129.886017 
	C266.401642,130.048218 264.624084,130.155273 262.039612,130.302521 
	C260.488098,130.427246 259.743469,130.511780 258.998871,130.596313 
z"/>
<path fill="#F7AE2C" opacity="1.000000" stroke="none" 
	d="
M219.006592,196.999481 
	C210.977402,197.060577 202.948212,197.121689 194.450073,196.847809 
	C193.981125,196.512817 193.972397,196.023712 193.985992,195.664398 
	C194.018616,194.826736 194.037643,194.348389 194.459625,193.706955 
	C194.862595,184.455399 194.862595,175.366913 194.862595,165.707764 
	C204.780869,165.707764 214.098740,165.707764 223.737213,165.707764 
	C221.797211,174.985809 219.913086,183.996567 217.788589,193.205719 
	C218.034332,194.602570 218.520462,195.801025 219.006592,196.999481 
z"/>
<path fill="#3D99B2" opacity="1.000000" stroke="none" 
	d="
M114.082794,132.372925 
	C114.769768,132.002106 115.486160,132.001068 116.775192,132.291107 
	C121.545555,143.139923 125.743286,153.697708 129.949371,164.290192 
	C129.957733,164.324890 129.953110,164.517654 129.993912,164.905457 
	C130.288239,165.726913 130.541763,166.160568 130.864166,166.923325 
	C131.825592,169.241348 132.718155,171.230255 133.508606,173.276794 
	C133.406509,173.334457 133.449631,173.564987 133.471558,173.724762 
	C133.493469,173.884552 133.759048,174.067612 133.812073,174.448700 
	C135.795547,179.727921 137.725983,184.626053 139.690720,189.851089 
	C140.360779,191.525284 140.996521,192.872589 141.631012,194.239014 
	C141.629745,194.258148 141.591873,194.271469 141.573654,194.618179 
	C141.937271,195.783615 142.319092,196.602341 142.700928,197.421066 
	C145.278030,204.458557 147.855118,211.496033 151.195374,218.825226 
	C182.307449,219.081131 212.656342,219.045349 243.005249,219.009552 
	C243.629135,219.805573 244.253021,220.601593 244.876923,221.397614 
	C243.503754,221.873978 242.130569,222.350327 239.916748,222.843658 
	C211.381378,222.902298 183.686661,222.943970 155.991959,222.985626 
	C155.233490,222.939285 154.475021,222.892929 153.108292,222.927368 
	C152.500031,223.008148 152.018448,223.057404 152.018448,223.057404 
	C151.571091,222.984695 151.123749,222.911972 150.102936,222.848450 
	C149.529495,222.857651 149.037384,222.827957 149.037384,222.827957 
	C144.843582,212.547653 140.477356,202.333633 136.492935,191.972809 
	C128.917358,172.273788 121.560120,152.490814 114.082794,132.372925 
z"/>
<path fill="#EEEEEF" opacity="1.000000" stroke="none" 
	d="
M267.824127,117.348419 
	C216.836990,117.723892 165.713547,117.743233 114.590096,117.752785 
	C113.929504,117.752907 113.268906,117.628426 112.306854,117.276230 
	C113.741798,116.660248 115.477882,116.043617 117.214622,116.041756 
	C165.655212,115.989830 214.095886,115.990028 262.536499,116.042046 
	C264.253937,116.043892 265.970703,116.661118 267.824127,117.348419 
z"/>
<path fill="#B6D3DB" opacity="1.000000" stroke="none" 
	d="
M123.719833,220.221664 
	C121.507111,224.233780 118.305466,226.775848 114.244125,225.756165 
	C111.565636,225.083633 108.859482,222.757492 107.140800,220.446579 
	C104.668137,217.121902 106.248985,213.159454 108.975128,211.079681 
	C111.287453,209.315643 115.175110,208.247009 117.963127,208.822128 
	C121.462006,209.543915 124.354027,212.393661 124.011269,216.855423 
	C123.934853,217.850113 123.907097,218.848526 123.719833,220.221664 
z"/>
<path fill="#B6D3DB" opacity="1.000000" stroke="none" 
	d="
M115.031250,85.888687 
	C112.508369,81.845154 111.895485,77.961227 115.087044,74.614380 
	C117.633118,71.944435 120.721016,70.397629 124.864685,71.984268 
	C128.629089,73.425682 131.054398,76.080490 130.696594,79.623802 
	C130.404877,82.513069 128.649002,86.286026 126.347267,87.649055 
	C124.071289,88.996841 120.291237,87.900940 117.185501,87.676125 
	C116.504295,87.626808 115.884514,86.728813 115.031250,85.888687 
z"/>
<path fill="#429DB9" opacity="1.000000" stroke="none" 
	d="
M111.105789,116.357224 
	C110.563522,117.410515 109.983932,118.097412 109.096161,118.935005 
	C104.119240,106.833855 99.450500,94.581993 94.874283,81.655350 
	C94.819214,80.137634 94.671608,79.294693 94.523994,78.451759 
	C93.682732,79.211411 92.841476,79.971069 92.000221,80.730728 
	C91.825417,80.743683 91.650604,80.756645 91.119476,80.647942 
	C90.472794,80.382271 90.233856,80.454559 90.046379,80.743149 
	C89.871208,80.751877 89.696037,80.760612 89.184036,80.458557 
	C87.899178,80.342476 86.951141,80.537186 86.003105,80.731903 
	C85.827805,80.744591 85.652512,80.757278 85.120209,80.648186 
	C84.472794,80.382355 84.233849,80.454659 84.046371,80.743309 
	C83.871765,80.752007 83.697159,80.760704 83.207199,80.443161 
	C81.919952,79.063156 80.948074,78.009377 79.976189,76.955605 
	C79.988503,76.478325 80.000824,76.001038 80.055115,75.167633 
	C83.990395,75.260925 87.939629,75.449760 91.753624,76.268555 
	C93.690720,76.684418 96.409164,77.819389 97.025574,79.338753 
	C101.943146,91.460114 106.441559,103.751534 111.105789,116.357224 
z"/>
<path fill="#B6D3DB" opacity="1.000000" stroke="none" 
	d="
M296.657532,165.595276 
	C296.137360,172.989532 291.375946,176.913742 286.291443,174.491119 
	C283.156830,172.997589 280.996368,170.261169 282.179352,166.901077 
	C283.049438,164.429810 285.226227,161.368301 287.446014,160.723907 
	C289.579437,160.104568 292.555084,162.166901 295.075043,163.249985 
	C295.719147,163.526840 296.039581,164.556702 296.657532,165.595276 
z"/>
<path fill="#449EB6" opacity="1.000000" stroke="none" 
	d="
M79.671188,76.722389 
	C80.948074,78.009377 81.919952,79.063156 82.945663,80.423981 
	C82.547508,80.783875 82.095528,80.836716 81.299377,80.904762 
	C80.627831,80.566170 80.043388,79.879463 80.009445,79.905678 
	C74.609230,84.075615 68.394569,81.254745 62.596382,81.815536 
	C61.838577,81.888832 60.335056,80.115799 60.185577,79.055717 
	C60.017796,77.865852 61.026875,75.390755 61.470520,75.403038 
	C67.441193,75.568428 73.402542,76.070541 79.671188,76.722389 
z"/>
<path fill="#B6D3DB" opacity="1.000000" stroke="none" 
	d="
M121.521057,191.341766 
	C124.993881,194.951080 124.422653,198.206039 121.250549,201.116806 
	C118.455368,203.681717 115.049240,203.743683 113.038963,200.681747 
	C111.767075,198.744476 111.300301,195.169693 112.231850,193.134796 
	C113.959167,189.361618 117.615021,189.253632 121.521057,191.341766 
z"/>
<path fill="#B6D3DB" opacity="1.000000" stroke="none" 
	d="
M146.140045,70.742317 
	C149.055206,73.557465 150.002182,76.715919 146.995667,79.146767 
	C145.156494,80.633781 141.948669,81.449181 139.607758,81.057732 
	C135.998306,80.454170 135.576935,77.055099 136.070694,73.892662 
	C136.717499,69.750046 141.006500,68.314964 146.140045,70.742317 
z"/>
<path fill="#F2F5F5" opacity="1.000000" stroke="none" 
	d="
M242.697052,218.728485 
	C212.656342,219.045349 182.307449,219.081131 151.507568,218.995575 
	C152.306778,218.582932 153.556549,218.039490 154.807236,218.037369 
	C183.028778,217.989563 211.250397,217.996689 239.472000,218.020325 
	C240.444397,218.021133 241.416565,218.298782 242.697052,218.728485 
z"/>
<path fill="#EEEEEF" opacity="1.000000" stroke="none" 
	d="
M156.301086,223.266083 
	C183.686661,222.943970 211.381378,222.902298 239.542053,222.923126 
	C238.775024,223.323349 237.542679,223.953094 236.308945,223.955780 
	C210.549408,224.011719 184.789703,224.000717 159.030060,223.976700 
	C158.223312,223.975952 157.416824,223.696213 156.301086,223.266083 
z"/>
<path fill="#B6D3DB" opacity="1.000000" stroke="none" 
	d="
M93.205444,210.949966 
	C94.437553,207.464828 96.216438,204.686447 99.980911,206.875061 
	C101.235046,207.604218 102.161301,210.199875 101.936111,211.753662 
	C101.759911,212.969406 99.342850,214.943192 98.332504,214.719940 
	C96.480759,214.310730 94.932396,212.528595 93.205444,210.949966 
z"/>
<path fill="#FBB01D" opacity="1.000000" stroke="none" 
	d="
M143.193237,197.364929 
	C142.319092,196.602341 141.937271,195.783615 141.953979,194.745056 
	C143.040588,194.967102 143.722519,195.782120 144.417648,195.793518 
	C151.836044,195.915070 159.258423,195.992950 166.674011,195.827515 
	C167.552567,195.807892 168.397171,194.265427 169.475708,193.417023 
	C170.101501,193.270523 170.509109,193.135880 171.187866,193.000763 
	C171.639771,192.999985 171.820496,192.999680 172.273102,193.261047 
	C174.104156,194.347427 175.629471,195.797165 177.228638,195.883789 
	C182.796082,196.185379 188.389099,196.014786 193.972397,196.023712 
	C193.972397,196.023712 193.981125,196.512817 193.988129,196.757324 
	C177.225266,197.104156 160.455414,197.206467 143.193237,197.364929 
z"/>
<path fill="#2E88A8" opacity="1.000000" stroke="none" 
	d="
M275.083069,210.029724 
	C278.947937,210.045715 282.339111,210.045715 286.334290,210.045715 
	C282.435822,213.789688 271.844849,214.071304 267.233093,210.013748 
	C269.691864,210.013748 272.150665,210.013748 275.083069,210.029724 
z"/>
<path fill="#B6D3DB" opacity="1.000000" stroke="none" 
	d="
M150.162567,64.119637 
	C152.071793,62.893745 153.857941,61.818790 155.785309,61.410553 
	C156.147675,61.333801 157.882034,64.186356 157.542282,65.207870 
	C157.078903,66.601036 154.747925,68.707794 154.076340,68.430321 
	C152.478638,67.770226 151.385406,65.889160 150.162567,64.119637 
z"/>
<path fill="#B6D3DB" opacity="1.000000" stroke="none" 
	d="
M271.137390,176.220016 
	C269.038879,175.840652 267.245300,175.225845 265.451721,174.611023 
	C266.039185,173.068527 266.230469,171.021744 267.343079,170.147720 
	C268.188995,169.483185 271.320587,169.971313 271.491852,170.535995 
	C271.994904,172.194626 271.528870,174.147141 271.137390,176.220016 
z"/>
<path fill="#368EAC" opacity="1.000000" stroke="none" 
	d="
M68.653099,168.035583 
	C74.496071,168.035477 79.907486,168.035477 85.318909,168.035477 
	C85.333717,168.454315 85.348526,168.873154 85.363335,169.291992 
	C79.142586,169.291992 72.921829,169.291992 65.917908,169.291992 
	C67.052734,168.673096 67.637138,168.354385 68.653099,168.035583 
z"/>
<path fill="#4195B1" opacity="1.000000" stroke="none" 
	d="
M248.605408,77.061859 
	C243.190506,77.063133 238.234589,77.063133 233.278687,77.063133 
	C233.274414,76.646477 233.270142,76.229820 233.265869,75.813164 
	C239.367371,75.813164 245.468887,75.813164 251.570404,75.813164 
	C251.599228,76.088112 251.628052,76.363060 251.656876,76.638008 
	C250.792709,76.778870 249.928543,76.919724 248.605408,77.061859 
z"/>
<path fill="#FDB01C" opacity="1.000000" stroke="none" 
	d="
M219.466217,197.097046 
	C218.520462,195.801025 218.034332,194.602570 217.849060,193.501556 
	C218.871826,193.294312 219.593704,192.989639 220.315598,192.684952 
	C220.957794,195.403641 222.731384,196.113419 225.399857,196.049362 
	C231.948593,195.892136 238.503754,196.001328 245.521545,196.210037 
	C245.986771,196.416733 245.982498,196.823624 245.982498,196.823608 
	C237.296936,196.947281 228.611389,197.070938 219.466217,197.097046 
z"/>
<path fill="#2A84A5" opacity="1.000000" stroke="none" 
	d="
M70.516373,163.998962 
	C69.276512,163.910355 68.472549,163.822327 67.668587,163.734283 
	C67.675133,163.579971 67.681671,163.425644 67.688217,163.271317 
	C73.224854,163.271317 78.761490,163.271317 84.298134,163.271317 
	C84.300873,163.514053 84.303612,163.756790 84.306351,163.999527 
	C79.854996,163.999527 75.403641,163.999527 70.516373,163.998962 
z"/>
<path fill="#E5EDEF" opacity="1.000000" stroke="none" 
	d="
M195.875244,57.518612 
	C192.262329,57.883011 188.534744,57.873859 184.409729,57.860428 
	C187.734726,54.419655 191.740036,55.656399 195.875244,57.518612 
z"/>
<path fill="#F9AE2A" opacity="1.000000" stroke="none" 
	d="
M259.083099,130.920975 
	C259.743469,130.511780 260.488098,130.427246 261.606140,130.409622 
	C261.216125,133.598694 260.452728,136.720825 259.409546,140.123383 
	C259.142303,137.351059 259.154816,134.298355 259.083099,130.920975 
z"/>
<path fill="#F9AE2A" opacity="1.000000" stroke="none" 
	d="
M255.005371,160.608551 
	C255.187637,158.635147 255.488159,156.300034 255.995361,154.145096 
	C255.842575,156.299118 255.483109,158.272980 255.005371,160.608551 
z"/>
<path fill="#449EB6" opacity="1.000000" stroke="none" 
	d="
M92.341019,80.840393 
	C92.841476,79.971069 93.682732,79.211411 94.523994,78.451759 
	C94.671608,79.294693 94.819214,80.137634 94.833038,81.298370 
	C94.026787,81.394142 93.354309,81.172096 92.341019,80.840393 
z"/>
<path fill="#F9AE2A" opacity="1.000000" stroke="none" 
	d="
M252.013428,173.648102 
	C252.001755,172.700714 252.110611,171.428940 252.536102,170.080200 
	C252.613129,171.110077 252.373535,172.216919 252.013428,173.648102 
z"/>
<path fill="#449EB6" opacity="1.000000" stroke="none" 
	d="
M86.373039,80.811668 
	C86.951141,80.537186 87.899178,80.342476 88.921616,80.439873 
	C88.245003,80.785126 87.493988,80.838280 86.373039,80.811668 
z"/>
<path fill="#F9AE2A" opacity="1.000000" stroke="none" 
	d="
M250.398834,180.150223 
	C250.327881,178.933441 250.525040,177.462921 250.964005,176.156540 
	C251.026199,177.512619 250.846573,178.704544 250.398834,180.150223 
z"/>
<path fill="#F9AE2A" opacity="1.000000" stroke="none" 
	d="
M246.283173,196.744431 
	C245.982498,196.823624 245.986771,196.416733 245.989716,196.213440 
	C246.273712,195.321854 246.554749,194.633575 247.012497,194.125793 
	C246.987411,195.092590 246.785614,195.878922 246.283173,196.744431 
z"/>
<path fill="#E5EDEF" opacity="1.000000" stroke="none" 
	d="
M181.964188,58.015717 
	C181.613571,58.480537 181.099289,58.704597 180.295807,58.929497 
	C180.604568,58.545212 181.202560,58.160088 181.964188,58.015717 
z"/>
<path fill="#F9AE2A" opacity="1.000000" stroke="none" 
	d="
M248.002121,191.622925 
	C247.865570,191.087708 247.844406,190.202927 248.118759,189.201614 
	C248.315353,189.814514 248.216431,190.543945 248.002121,191.622925 
z"/>
<path fill="#F9AE2A" opacity="1.000000" stroke="none" 
	d="
M257.960327,147.613892 
	C257.845154,147.082413 257.835144,146.198715 258.119568,145.200226 
	C258.297821,145.810837 258.181671,146.536255 257.960327,147.613892 
z"/>
<path fill="#F9AE2A" opacity="1.000000" stroke="none" 
	d="
M257.002136,151.622894 
	C256.865540,151.087677 256.844360,150.202896 257.118713,149.201599 
	C257.315308,149.814499 257.216400,150.543930 257.002136,151.622894 
z"/>
<path fill="#F9AE2A" opacity="1.000000" stroke="none" 
	d="
M258.997620,142.651764 
	C258.812927,142.402710 258.733521,141.828873 258.872925,141.113983 
	C259.095490,141.424301 259.099213,141.875626 258.997620,142.651764 
z"/>
<path fill="#F9AE2A" opacity="1.000000" stroke="none" 
	d="
M249.997620,182.651825 
	C249.812912,182.402756 249.733505,181.828888 249.872955,181.114014 
	C250.095490,181.424332 250.099197,181.875671 249.997620,182.651825 
z"/>
<path fill="#EEEEEF" opacity="1.000000" stroke="none" 
	d="
M152.112152,223.197250 
	C152.018448,223.057404 152.500031,223.008148 152.740784,223.032776 
	C152.722992,223.150635 152.464432,223.243866 152.112152,223.197250 
z"/>
<path fill="#EEEEEF" opacity="1.000000" stroke="none" 
	d="
M149.109528,222.996155 
	C149.037384,222.827957 149.529495,222.857651 149.767609,222.921417 
	C149.731049,223.044907 149.456360,223.104630 149.109528,222.996155 
z"/>
<path fill="#F9AE2A" opacity="1.000000" stroke="none" 
	d="
M253.185089,167.744598 
	C252.953995,167.796082 252.796982,167.580795 252.694183,167.342163 
	C252.676025,167.300018 252.884216,167.160355 253.193680,166.984436 
	C253.358841,167.092072 253.318222,167.280991 253.185089,167.744598 
z"/>
<path fill="#449EB6" opacity="1.000000" stroke="none" 
	d="
M84.272354,80.812515 
	C84.233849,80.454659 84.472794,80.382355 84.856888,80.635284 
	C84.950562,80.744156 84.498337,80.881721 84.272354,80.812515 
z"/>
<path fill="#449EB6" opacity="1.000000" stroke="none" 
	d="
M90.272354,80.812317 
	C90.233856,80.454559 90.472794,80.382271 90.856857,80.635109 
	C90.950539,80.743950 90.498337,80.881493 90.272354,80.812317 
z"/>
<path fill="#429DB9" opacity="1.000000" stroke="none" 
	d="
M109.854591,121.298882 
	C109.998665,121.286758 110.171127,121.517265 110.215446,121.866524 
	C110.087311,121.985283 109.882973,121.541504 109.854591,121.298882 
z"/>
<path fill="#000000" opacity="1.000000" stroke="none" 
	d="
M222.066589,239.956970 
	C223.561478,238.059677 224.918213,236.340332 226.667480,235.251572 
	C227.069412,235.001404 229.905792,237.226242 229.748520,237.779877 
	C229.252045,239.527328 228.205322,241.568604 226.739746,242.477707 
	C224.868195,243.638641 222.491608,243.572632 222.066589,239.956970 
z"/>
<path fill="#000000" opacity="1.000000" stroke="none" 
	d="
M168.882385,234.985306 
	C169.541275,236.529877 170.307388,238.080017 170.021332,239.402603 
	C169.424988,242.159744 167.355133,243.919922 164.601059,242.611755 
	C163.154999,241.924896 161.297638,239.363205 161.623413,238.214661 
	C162.505142,235.105865 164.502350,232.402161 168.882385,234.985306 
z"/>
<path fill="#F3AD2E" opacity="1.000000" stroke="none" 
	d="
M129.941010,164.255478 
	C125.743286,153.697708 121.545555,143.139923 117.133453,132.290817 
	C118.243889,131.422806 119.567841,130.344757 120.893623,130.342499 
	C158.008148,130.279251 195.122864,130.324844 232.865356,130.718948 
	C233.663757,132.055984 233.834351,133.026596 234.004944,133.997223 
	C221.610413,129.122330 208.685837,132.677628 196.038315,131.788513 
	C194.980667,131.714172 193.743454,134.194168 192.307068,135.419037 
	C191.703400,134.943954 191.382309,134.537262 191.061218,134.130569 
	C191.022522,134.291946 190.950760,134.453125 190.949860,134.614716 
	C190.902634,143.091614 190.861404,151.568527 190.452545,160.218567 
	C184.305054,160.593048 178.521454,160.731689 172.745148,161.017593 
	C168.836731,161.211044 164.938568,161.611679 160.703125,161.795319 
	C156.836807,153.216766 153.303207,144.762543 149.769592,136.308319 
	C149.298294,136.489655 148.826981,136.670975 148.355667,136.852295 
	C151.093475,145.357880 153.831299,153.863464 156.763275,162.972260 
	C151.918991,162.972260 147.768356,162.806091 143.636948,163.016708 
	C139.062469,163.249924 134.505569,163.827744 129.941010,164.255478 
z"/>
<path fill="#3B899D" opacity="1.000000" stroke="none" 
	d="
M190.819550,160.045456 
	C190.861404,151.568527 190.902634,143.091614 190.949860,134.614716 
	C190.950760,134.453125 191.022522,134.291946 191.061218,134.130569 
	C191.382309,134.537262 191.703400,134.943954 192.094315,135.677948 
	C192.830795,143.013306 193.497452,150.021378 194.312317,157.843445 
	C194.247162,161.059509 194.957367,162.195160 197.753418,162.116486 
	C205.497162,161.898621 213.250153,162.009644 220.999496,161.990662 
	C220.999496,161.990662 221.328583,162.146530 221.650909,162.351685 
	C222.371689,162.412476 222.770172,162.268097 223.168640,162.123718 
	C223.168640,162.123718 223.071915,162.136826 223.317993,162.131149 
	C223.564087,162.125473 223.972565,161.902222 223.972565,161.902222 
	C226.293182,153.866638 228.613815,145.831039 231.317764,137.454468 
	C232.059952,137.292648 232.418823,137.471817 232.777695,137.650986 
	C232.777695,137.650986 232.623886,137.729874 232.500717,138.188873 
	C231.805603,142.588989 231.233673,146.530106 230.661743,150.471237 
	C230.467178,151.098862 230.272598,151.726486 229.966339,152.975433 
	C229.792267,154.215775 229.729904,154.834808 229.667542,155.453827 
	C229.464157,156.082809 229.260788,156.711792 228.958435,157.947815 
	C228.872086,158.942764 228.884735,159.330673 228.662720,159.933121 
	C228.620972,160.988907 228.813889,161.830170 229.377197,162.744476 
	C230.497589,162.768814 231.247589,162.720078 231.997574,162.671356 
	C234.052094,162.759918 236.106628,162.848495 238.980850,162.948303 
	C240.834534,163.627899 241.868530,164.296234 242.902512,164.964569 
	C238.427017,164.992157 233.949799,164.963379 229.477631,165.099899 
	C228.683548,165.124161 227.910446,165.836075 226.983459,166.999954 
	C225.849365,172.101059 224.859451,176.432648 223.869537,180.764236 
	C223.605591,181.306946 223.341644,181.849655 222.932373,183.013046 
	C222.664536,184.293549 222.542007,184.953384 222.419464,185.613205 
	C222.419464,185.613205 222.454422,185.832489 222.295883,186.074982 
	C221.572800,188.438507 221.008270,190.559555 220.443726,192.680588 
	C220.443726,192.680588 220.379105,192.659744 220.347351,192.672348 
	C219.593704,192.989639 218.871826,193.294312 218.089447,193.303162 
	C219.913086,183.996567 221.797211,174.985809 223.737213,165.707764 
	C214.098740,165.707764 204.780869,165.707764 194.862595,165.707764 
	C194.862595,175.366913 194.862595,184.455399 194.427246,193.294434 
	C193.235931,186.353622 192.479965,179.662292 191.763977,172.562775 
	C191.606567,170.202621 191.409195,168.250656 191.182220,166.006088 
	C185.564835,166.006088 180.282166,166.006088 174.629730,165.917969 
	C173.507034,165.888611 172.754120,165.947372 171.655548,165.896622 
	C170.834198,165.765533 170.358475,165.743973 169.492706,165.604965 
	C166.833252,165.487534 164.563828,165.487534 161.812164,165.487534 
	C164.372391,172.895721 166.831039,180.009933 169.318558,187.512192 
	C169.870514,189.600555 170.393600,191.300888 170.916702,193.001221 
	C170.509109,193.135880 170.101501,193.270523 169.450607,193.280579 
	C169.207321,193.156006 168.978699,192.997910 168.955536,192.729492 
	C168.712357,192.216568 168.492325,191.972076 168.359344,191.757095 
	C168.446396,191.786591 168.506317,191.612793 168.474365,191.327942 
	C168.257507,190.705826 168.072617,190.368561 167.842636,189.676636 
	C165.534348,184.011017 163.194244,178.731232 161.025497,173.381973 
	C157.552582,164.816010 157.600601,164.796539 147.496399,165.112930 
	C141.623215,164.803207 136.211914,164.558502 130.573547,164.301636 
	C130.346497,164.289474 129.953110,164.517654 129.953110,164.517654 
	C129.953110,164.517654 129.957733,164.324890 129.949371,164.290192 
	C134.505569,163.827744 139.062469,163.249924 143.636948,163.016708 
	C147.768356,162.806091 151.918991,162.972260 156.763275,162.972260 
	C153.831299,153.863464 151.093475,145.357880 148.355667,136.852295 
	C148.826981,136.670975 149.298294,136.489655 149.769592,136.308319 
	C153.303207,144.762543 156.836807,153.216766 161.159195,161.899017 
	C170.472092,162.101028 178.997772,162.147583 187.518356,161.960724 
	C188.632217,161.936295 189.719803,160.713318 190.819550,160.045456 
z"/>
<path fill="#FFB11A" opacity="1.000000" stroke="none" 
	d="
M220.687729,161.715240 
	C213.250153,162.009644 205.497162,161.898621 197.753418,162.116486 
	C194.957367,162.195160 194.247162,161.059509 194.475006,158.270325 
	C194.740021,157.295807 194.990555,156.708420 195.871292,154.643570 
	C195.364502,160.608536 197.931946,161.203400 201.733261,161.089722 
	C207.938461,160.904221 214.160828,161.293228 220.687729,161.715240 
z"/>
<path fill="#F9AE2A" opacity="1.000000" stroke="none" 
	d="
M243.317413,164.973969 
	C241.868530,164.296234 240.834534,163.627899 239.419312,162.893692 
	C242.997116,162.452271 246.956161,162.076706 250.915192,161.701141 
	C251.018478,162.297684 251.121750,162.894226 251.225021,163.490768 
	C248.727448,163.988312 246.229889,164.485840 243.317413,164.973969 
z"/>
<path fill="#F9AE2A" opacity="1.000000" stroke="none" 
	d="
M224.087524,180.923370 
	C224.859451,176.432648 225.849365,172.101059 226.970276,167.396378 
	C226.169342,171.709686 225.237427,176.396088 224.087524,180.923370 
z"/>
<path fill="#F9AE2A" opacity="1.000000" stroke="none" 
	d="
M230.874847,150.684631 
	C231.233673,146.530106 231.805603,142.588989 232.518250,138.273499 
	C232.135284,142.232086 231.611618,146.565063 230.874847,150.684631 
z"/>
<path fill="#F9AE2A" opacity="1.000000" stroke="none" 
	d="
M234.266006,133.798370 
	C233.834351,133.026596 233.663757,132.055984 233.329285,130.839752 
	C234.282120,130.523682 235.398819,130.453201 236.831024,130.507172 
	C236.273376,131.620911 235.400223,132.610214 234.266006,133.798370 
z"/>
<path fill="#F9AE2A" opacity="1.000000" stroke="none" 
	d="
M231.915283,162.373108 
	C231.247589,162.720078 230.497589,162.768814 229.372925,162.375473 
	C228.964615,161.195129 228.930984,160.456848 228.897369,159.718582 
	C228.884735,159.330673 228.872086,158.942764 228.980453,158.288544 
	C230.011963,159.373093 230.922470,160.723969 231.915283,162.373108 
z"/>
<path fill="#F9AE2A" opacity="1.000000" stroke="none" 
	d="
M220.821503,192.595123 
	C221.008270,190.559555 221.572800,188.438507 222.406754,186.080719 
	C222.183853,188.065872 221.691559,190.287781 220.821503,192.595123 
z"/>
<path fill="#F9AE2A" opacity="1.000000" stroke="none" 
	d="
M229.829498,155.669434 
	C229.729904,154.834808 229.792267,154.215775 229.977966,153.309814 
	C230.064697,153.976913 230.028061,154.930984 229.829498,155.669434 
z"/>
<path fill="#F9AE2A" opacity="1.000000" stroke="none" 
	d="
M232.844391,137.242020 
	C232.418823,137.471817 232.059952,137.292648 231.401855,137.082703 
	C230.875229,136.708344 230.647827,136.364746 230.420410,136.021149 
	C231.091476,135.996429 231.762527,135.971695 232.716522,135.973022 
	C232.999435,135.999100 233.014359,136.010757 233.014359,136.010757 
	C232.979935,136.284851 232.945511,136.558960 232.844391,137.242020 
z"/>
<path fill="#F9AE2A" opacity="1.000000" stroke="none" 
	d="
M222.744949,185.605591 
	C222.542007,184.953384 222.664536,184.293549 222.944290,183.327789 
	C223.091156,183.880569 223.080780,184.739288 222.744949,185.605591 
z"/>
<path fill="#F9AE2A" opacity="1.000000" stroke="none" 
	d="
M232.993469,135.991241 
	C232.987518,135.983368 233.252029,135.584747 233.252029,135.584747 
	C233.252029,135.584747 233.240936,135.901947 233.127655,135.956360 
	C233.014359,136.010757 232.999435,135.999100 232.993469,135.991241 
z"/>
<path fill="#FFB11A" opacity="1.000000" stroke="none" 
	d="
M223.851318,161.777679 
	C223.972565,161.902222 223.564087,162.125473 223.336761,162.176208 
	C223.316315,162.035675 223.523193,161.844421 223.851318,161.777679 
z"/>
<path fill="#FFB11A" opacity="1.000000" stroke="none" 
	d="
M222.799194,162.098267 
	C222.770172,162.268097 222.371689,162.412476 221.831406,162.327911 
	C221.936325,162.090271 222.183044,162.081543 222.799194,162.098267 
z"/>
<path fill="#E9AD2F" opacity="1.000000" stroke="none" 
	d="
M196.924713,81.264145 
	C198.412323,76.226463 197.216446,72.266411 192.634186,70.610275 
	C185.239990,67.937828 182.343475,73.008301 180.732956,80.332565 
	C178.880463,74.592583 181.367355,69.930466 185.957657,68.139511 
	C190.978485,66.180595 196.995941,68.844650 199.173141,73.990280 
	C201.689819,79.938271 199.031998,84.824402 191.154037,88.618004 
	C190.963470,91.215446 190.769501,93.859337 190.477051,97.845650 
	C187.140701,90.846535 188.206207,87.544548 193.185852,84.937469 
	C194.575745,84.209785 195.592010,82.768463 196.924713,81.264145 
z"/>
<path fill="#F8AE2C" opacity="1.000000" stroke="none" 
	d="
M169.289688,187.124161 
	C166.831039,180.009933 164.372391,172.895721 161.812164,165.487534 
	C164.563828,165.487534 166.833252,165.487534 169.641861,165.849884 
	C170.787766,166.143539 171.394485,166.074844 172.001190,166.006134 
	C172.754120,165.947372 173.507034,165.888611 174.939789,166.193817 
	C176.255081,166.700302 176.886444,166.943466 177.526672,166.969559 
	C183.016632,167.193268 189.479156,165.074570 191.723999,172.970947 
	C192.479965,179.662292 193.235931,186.353622 194.024292,193.457489 
	C194.037643,194.348389 194.018616,194.826736 193.985992,195.664398 
	C188.389099,196.014786 182.796082,196.185379 177.228638,195.883789 
	C175.629471,195.797165 174.104156,194.347427 172.263428,192.872437 
	C171.084473,190.522827 170.187073,188.823502 169.289688,187.124161 
z"/>
<path fill="#F9AE2B" opacity="1.000000" stroke="none" 
	d="
M168.978699,192.997910 
	C168.978699,192.997910 169.207321,193.156006 169.232422,193.292450 
	C168.397171,194.265427 167.552567,195.807892 166.674011,195.827515 
	C159.258423,195.992950 151.836044,195.915070 144.417648,195.793518 
	C143.722519,195.782120 143.040588,194.967102 141.972198,194.398346 
	C141.591873,194.271469 141.629745,194.258148 141.737152,193.872375 
	C141.115189,192.165787 140.385803,190.845001 139.656418,189.524200 
	C137.725983,184.626053 135.795547,179.727921 133.986069,174.340088 
	C133.887909,173.755264 133.668762,173.660126 133.449631,173.564987 
	C133.449631,173.564987 133.406509,173.334457 133.622253,172.890930 
	C133.505951,170.420151 133.173904,168.392899 132.855835,166.450943 
	C138.156311,166.004166 143.057281,165.591049 147.958252,165.177948 
	C157.600601,164.796539 157.552582,164.816010 161.025497,173.381973 
	C163.194244,178.731232 165.534348,184.011017 167.647827,189.860153 
	C167.834167,190.803146 168.170242,191.207977 168.506317,191.612793 
	C168.506317,191.612793 168.446396,191.786591 168.376083,192.016022 
	C168.530075,192.496277 168.754395,192.747101 168.978699,192.997910 
z"/>
<path fill="#F9B020" opacity="1.000000" stroke="none" 
	d="
M147.496399,165.112930 
	C143.057281,165.591049 138.156311,166.004166 132.855835,166.450943 
	C133.173904,168.392899 133.505951,170.420151 133.724350,172.833267 
	C132.718155,171.230255 131.825592,169.241348 130.894257,166.352615 
	C130.837189,165.073135 130.818893,164.693466 130.800598,164.313812 
	C136.211914,164.558502 141.623215,164.803207 147.496399,165.112930 
z"/>
<path fill="#FBB01D" opacity="1.000000" stroke="none" 
	d="
M139.690720,189.851089 
	C140.385803,190.845001 141.115189,192.165787 141.738434,193.853241 
	C140.996521,192.872589 140.360779,191.525284 139.690720,189.851089 
z"/>
<path fill="#F3AD2E" opacity="1.000000" stroke="none" 
	d="
M130.573547,164.301636 
	C130.818893,164.693466 130.837189,165.073135 130.825378,166.023499 
	C130.541763,166.160568 130.288239,165.726913 129.993912,164.905457 
	C129.953110,164.517654 130.346497,164.289474 130.573547,164.301636 
z"/>
<path fill="#F9B020" opacity="1.000000" stroke="none" 
	d="
M133.471558,173.724762 
	C133.668762,173.660126 133.887909,173.755264 133.933044,173.959000 
	C133.759048,174.067612 133.493469,173.884552 133.471558,173.724762 
z"/>
<path fill="#FCB01E" opacity="1.000000" stroke="none" 
	d="
M169.318558,187.512192 
	C170.187073,188.823502 171.084473,190.522827 171.991547,192.610779 
	C171.820496,192.999680 171.639771,192.999985 171.187866,193.000748 
	C170.393600,191.300888 169.870514,189.600555 169.318558,187.512192 
z"/>
<path fill="#FFB11A" opacity="1.000000" stroke="none" 
	d="
M190.452545,160.218567 
	C189.719803,160.713318 188.632217,161.936295 187.518356,161.960724 
	C178.997772,162.147583 170.472092,162.101028 161.491913,162.023346 
	C164.938568,161.611679 168.836731,161.211044 172.745148,161.017593 
	C178.521454,160.731689 184.305054,160.593048 190.452545,160.218567 
z"/>
<path fill="#FFB11A" opacity="1.000000" stroke="none" 
	d="
M191.763977,172.562775 
	C189.479156,165.074570 183.016632,167.193268 177.526672,166.969559 
	C176.886444,166.943466 176.255081,166.700302 175.309555,166.281921 
	C180.282166,166.006088 185.564835,166.006088 191.182220,166.006088 
	C191.409195,168.250656 191.606567,170.202621 191.763977,172.562775 
z"/>
<path fill="#F9AE2B" opacity="1.000000" stroke="none" 
	d="
M228.662720,159.933121 
	C228.930984,160.456848 228.964615,161.195129 229.002518,162.302399 
	C228.813889,161.830170 228.620972,160.988907 228.662720,159.933121 
z"/>
<path fill="#FBB01D" opacity="1.000000" stroke="none" 
	d="
M168.474365,191.327942 
	C168.170242,191.207977 167.834167,190.803146 167.692917,190.214798 
	C168.072617,190.368561 168.257507,190.705826 168.474365,191.327942 
z"/>
<path fill="#FFB11A" opacity="1.000000" stroke="none" 
	d="
M171.655548,165.896622 
	C171.394485,166.074844 170.787766,166.143539 170.031921,165.967316 
	C170.358475,165.743973 170.834198,165.765533 171.655548,165.896622 
z"/>
<path fill="#FBB01D" opacity="1.000000" stroke="none" 
	d="
M168.955536,192.729492 
	C168.754395,192.747101 168.530075,192.496277 168.289032,191.986542 
	C168.492325,191.972076 168.712357,192.216568 168.955536,192.729492 
z"/>
</svg>